<?xml version="1.0" encoding="utf-8"?>
<!-- Generator: Adobe Illustrator 22.0.1, SVG Export Plug-In . SVG Version: 6.00 Build 0)  -->
<svg version="1.1" id="Layer_1" xmlns="http://www.w3.org/2000/svg" xmlns:xlink="http://www.w3.org/1999/xlink" x="0px" y="0px"
	 viewBox="0 0 1920 1080" style="enable-background:new 0 0 1920 1080;" xml:space="preserve">
<style type="text/css">
	.st0{fill-rule:evenodd;clip-rule:evenodd;fill:#0075BC;}
	.st1{fill-rule:evenodd;clip-rule:evenodd;fill:#06816F;}
</style>
<g>
	<g>
		<path d="M219.6,347.5v300c0,21,6.9,36.6,20.7,46.8s28.7,15.6,44.7,16.3c0.7,0,1.3,0,1.6,0c0.4,0,0.9,0,1.6,0s1.3,0,1.6,0
			c0.4,0,0.9,0,1.6,0c16-0.7,30.9-6.2,44.7-16.3c13.8-10.1,20.7-25.4,20.7-45.7V347.5h214.5v505H379.7V784
			c-14.5,29-35,50.6-61.5,64.7c-26.5,14.1-54.3,22.6-83.3,25.5c-3.6,0.7-7.1,1.1-10.3,1.1c-3.3,0-6.7,0-10.3,0c-1.5,0-2.9,0-4.4,0
			s-2.9,0-4.4,0c-48.6-2.2-92.9-18.5-132.9-49c-39.9-30.5-59.9-71.8-59.9-124.1V347.5H219.6z"/>
		<path d="M1224.5,143.5v709h-184V784c-7.3,24.6-25.8,44.2-55.5,58.7c-29.8,14.5-62.8,21.7-99.1,21.7c-7.3,0-14.5-0.4-21.8-1.1
			c-7.3-0.7-14.5-1.8-21.8-3.3c-47.9-8-91.8-32.5-131.8-73.5c-39.9-41-59.9-102.8-59.9-185.5c0-90.7,19.6-157.4,58.8-200.2
			S791.8,333,839,325.8c5.8-1.4,11.8-2.3,18-2.7c6.2-0.4,12.2-0.5,18-0.5c29.8,0,57.5,5.3,83.3,15.8c25.8,10.5,45.5,24.8,59.3,42.9
			V143.5H1224.5z M878.2,519.8c-15.3,22.8-22.9,49.5-22.9,79.9c0,31.2,6.7,58.3,20.1,81.5s35.4,34.8,65.9,34.8
			c26.9,0,47.7-11.2,62.6-33.7c14.9-22.5,23-47.1,24.5-73.9c0-1.4,0-2.9,0-4.3c0-1.4,0-2.9,0-4.3c0-2.2,0-4.3,0-6.5
			s-0.4-4.7-1.1-7.6c-2.2-24.6-10.3-47.5-24.5-68.5s-34.7-31.5-61.5-31.5S893.5,496.9,878.2,519.8z"/>
		<path d="M1370.5,347.5v-152h199.3v152h99.1v123h-99.1v185.1c0,16.7,5.1,30.1,15.2,40.3c10.2,10.2,28.7,15.3,55.5,15.3
			c2.2,0,4.3,0,6.5,0c2.2,0,4.3-0.4,6.5-1.1c1.5,0,2.7,0,3.8,0s2.4,0,3.8,0c1.4,0,2.7,0,3.8,0s2.4,0,3.8,0v142.4
			c-22.5,1.5-44.1,2.5-64.8,3.3c-20.7,0.7-39.8,1.1-57.2,1.1c-61.7,0-107.8-8.7-138.3-26.1s-45.7-52.6-45.7-105.6V470.5h-76.2v-123
			H1370.5z"/>
	</g>
	<rect x="1707.2" y="355.2" class="st0" width="202.8" height="202.8"/>
	<g>
		<path d="M67.3,231.7c0,9.7-2.1,16.8-6.4,21.1s-11.4,6.5-21.1,6.5c-9.3,0-16.3-2.2-20.8-6.7c-4.5-4.5-6.8-11.4-6.8-20.8v-42.5h7.1
			h7.2v42.9c0,4.9,1.1,8.5,3.3,11c2.2,2.4,5.5,3.7,10,3.7c4.8,0,8.2-1.1,10.2-3.4c2-2.2,3.1-6,3.1-11.3v-42.9h7.1h7.2V231.7z"/>
		<path d="M79.5,189.2h7.1h7.2v68.2h-7.1h-7.2V189.2z"/>
		<path d="M165.6,233.5c-0.9,7.9-4,14.1-9.3,18.8c-5.3,4.6-12.1,7-20.3,7c-9.6,0-17.2-3.2-22.9-9.6c-5.6-6.4-8.5-15.1-8.5-26
			c0-11.1,2.8-20,8.5-26.5c5.6-6.5,13.3-9.8,22.9-9.8c8.1,0,14.8,2.2,20.2,6.6s8.5,10.3,9.4,17.8h-14.3c-0.5-3.7-2.1-6.6-4.8-8.8
			c-2.7-2.2-6.2-3.2-10.3-3.2c-5.3,0-9.5,2.1-12.5,6.3c-3,4.2-4.5,10.1-4.5,17.5c0,7.3,1.5,13,4.5,17.1c3,4.1,7.2,6.2,12.5,6.2
			c4.2,0,7.6-1.2,10.3-3.6c2.7-2.4,4.3-5.7,4.8-9.8H165.6z"/>
		<path d="M202.8,189.2h7.1H232c9.4,0,16.5,2.8,21.4,8.3c4.9,5.5,7.3,13.6,7.3,24.2c0,11.7-2.5,20.6-7.6,26.6
			c-5.1,6.1-12.5,9.1-22.3,9.1h-20.9h-7.1V189.2z M217.1,245.6h12c5.8,0,10.1-2,13-5.9c2.9-3.9,4.3-9.8,4.3-17.6
			c0-7.1-1.3-12.4-4-15.9c-2.7-3.5-6.7-5.3-12.2-5.3h-13.2V245.6z"/>
		<path d="M270.8,257.4v-68.2h50.2v6v6.1h-36v14.5h33.4v5.8v5.9h-33.4v17.8h37.6v6v6.1H270.8z"/>
		<path d="M338.7,189.2h6.8h26.2c6.6,0,11.7,1.5,15.5,4.6c3.7,3,5.6,7.3,5.6,12.7c0,5.7-2.1,10-6.3,12.9c-0.7,0.5-1.4,0.9-2.3,1.3
			c1.6,0.6,3,1.4,4.3,2.2c4.4,3,6.5,7.4,6.5,13.1c0,7-2.2,12.2-6.5,15.9c-4.3,3.6-10.6,5.4-18.9,5.4h-24.1h-6.8V189.2z M352.4,215.9
			h16.3c3.6,0,6.2-0.7,8-2c1.8-1.3,2.6-3.3,2.6-6c0-2.3-0.9-4.1-2.8-5.2c-1.9-1.2-4.7-1.7-8.4-1.7h-15.7V215.9z M352.4,245.5h17.3
			c3.7,0,6.5-0.8,8.4-2.4c1.9-1.6,2.8-4,2.8-7.3c0-2.8-1-5-2.9-6.4c-1.9-1.4-4.8-2.1-8.6-2.1h-17V245.5z"/>
		<path d="M425.6,189.2h8.3h8.3l24.1,68.2h-7.6h-7.6l-4.6-13.9h-25.9l-4.5,13.9h-7.3h-7.4L425.6,189.2z M424.6,231.8h18.1l-9.1-27.4
			h0L424.6,231.8z"/>
		<path d="M489.5,201.3h-20.6v-6v-6.1h55.5v6v6.1h-20.6v56.1h-7.1h-7.2V201.3z"/>
		<path d="M529.1,257.4v-68.2h50.2v6v6.1h-36v14.5h33.4v5.8v5.9h-33.4v17.8H581v6v6.1H529.1z"/>
		<path d="M638.8,201.3h-20.6v-6v-6.1h55.5v6v6.1h-20.6v56.1H646h-7.2V201.3z"/>
		<path d="M678.5,257.4v-68.2h50.2v6v6.1h-36v14.5h33.4v5.8v5.9h-33.4v17.8h37.6v6v6.1H678.5z"/>
		<path d="M765.2,189.2h8.3h8.3l24.1,68.2h-7.6h-7.6l-4.6-13.9h-25.9l-4.5,13.9h-7.3h-7.4L765.2,189.2z M764.2,231.8h18.1l-9.1-27.4
			h0L764.2,231.8z"/>
		<path d="M827,257.4h-6.6h-6.7v-68.2h10.4h10.4l12.4,54h0l12.3-54h10.3h10.3v68.2h-6.6h-6.7V200h0l-12.8,57.3h-7h-7l-12.8-58.6h0
			V257.4z"/>
	</g>
	<rect x="1707.2" y="657.9" class="st1" width="202.8" height="202.8"/>
</g>
</svg>
