<?xml version="1.0" encoding="utf-8"?>
<!-- Generator: Adobe Illustrator 22.0.1, SVG Export Plug-In . SVG Version: 6.00 Build 0)  -->
<svg version="1.1" id="Layer_1" xmlns="http://www.w3.org/2000/svg" xmlns:xlink="http://www.w3.org/1999/xlink" x="0px" y="0px"
	 viewBox="0 0 1920 1080" style="enable-background:new 0 0 1920 1080;" xml:space="preserve">
<style type="text/css">
	.st0{fill:#FFFFFF;}
	.st1{fill-rule:evenodd;clip-rule:evenodd;fill:#0075BC;}
	.st2{fill-rule:evenodd;clip-rule:evenodd;fill:#06816F;}
</style>
<g>
	<g>
		<path class="st0" d="M219.2,391.2v299.5c0,21,6.9,36.5,20.6,46.7s28.6,15.6,44.6,16.3c0.7,0,1.3,0,1.6,0c0.4,0,0.9,0,1.6,0
			c0.7,0,1.3,0,1.6,0c0.4,0,0.9,0,1.6,0c15.9-0.7,30.8-6.2,44.6-16.3s20.7-25.3,20.7-45.6V391.2h214.1v504H379v-68.4
			c-14.5,28.9-35,50.5-61.4,64.6s-54.2,22.6-83.1,25.5c-3.6,0.7-7.1,1.1-10.3,1.1c-3.3,0-6.7,0-10.3,0c-1.5,0-2.9,0-4.3,0
			c-1.5,0-2.9,0-4.4,0c-48.6-2.2-92.8-18.5-132.6-48.9c-39.9-30.4-59.8-71.7-59.8-123.8V391.2H219.2z"/>
		<path class="st0" d="M1222.4,187.2v708h-183.7v-68.4c-7.3,24.6-25.7,44.1-55.4,58.6s-62.7,21.7-98.9,21.7
			c-7.3,0-14.5-0.4-21.8-1.1c-7.3-0.7-14.5-1.8-21.7-3.3c-47.8-8-91.7-32.4-131.5-73.3c-39.9-40.9-59.8-102.6-59.8-185.2
			c0-90.5,19.6-157.1,58.7-199.9s82.3-67.7,129.4-75c5.8-1.4,11.8-2.3,17.9-2.7c6.2-0.4,12.1-0.5,17.9-0.5
			c29.7,0,57.4,5.3,83.2,15.7c25.7,10.5,45.5,24.8,59.2,42.9V187.2H1222.4z M876.7,563.3c-15.2,22.8-22.8,49.4-22.8,79.7
			c0,31.1,6.7,58.2,20.1,81.4s35.3,34.7,65.8,34.7c26.8,0,47.6-11.2,62.5-33.6c14.8-22.4,23-47,24.5-73.8c0-1.4,0-2.9,0-4.3
			c0-1.4,0-2.9,0-4.3c0-2.2,0-4.3,0-6.5c0-2.2-0.4-4.7-1.1-7.6c-2.2-24.6-10.3-47.4-24.5-68.4c-14.1-21-34.6-31.5-61.4-31.5
			S892,540.6,876.7,563.3z"/>
		<path class="st0" d="M1368.5,391.2v-152h198.9v152h98.9v123h-98.9v184.6c0,16.7,5.1,30,15.2,40.2c10.1,10.1,28.6,15.2,55.4,15.2
			c2.2,0,4.3,0,6.5,0c2.2,0,4.3-0.4,6.5-1.1c1.4,0,2.7,0,3.8,0s2.4,0,3.8,0c1.4,0,2.7,0,3.8,0s2.4,0,3.8,0v142.1
			c-22.5,1.5-44,2.5-64.7,3.3c-20.7,0.7-39.7,1.1-57.1,1.1c-61.6,0-107.6-8.7-138-26s-45.7-52.5-45.7-105.3v-254h-76.1v-123H1368.5z
			"/>
	</g>
	<rect x="1704.5" y="398.6" class="st1" width="202.5" height="202.5"/>
	<rect x="1704.5" y="700.9" class="st2" width="202.5" height="202.5"/>
</g>
</svg>
